<?xml version="1.0" encoding="UTF-8" ?>
<!DOCTYPE svg PUBLIC "-//W3C//DTD SVG 1.1//EN" "http://www.w3.org/Graphics/SVG/1.1/DTD/svg11.dtd">
<svg width="1599pt" height="900pt" viewBox="0 0 1599 900" version="1.1" xmlns="http://www.w3.org/2000/svg">
<g id="#000000ff">
</g>
<g id="#a8e6cfff">
<path fill="#a8e6cf" opacity="1.00" d=" M 799.33 0.00 L 799.69 0.00 C 816.23 21.35 834.30 41.52 852.94 61.07 C 898.76 108.60 950.77 150.72 1009.25 181.71 C 1054.75 205.48 1102.76 224.34 1152.02 238.74 C 1142.12 253.53 1133.93 269.36 1124.34 284.34 C 1087.18 276.21 1050.13 267.21 1014.08 255.00 C 948.93 233.09 888.19 198.67 834.86 155.42 C 834.94 196.57 834.63 237.72 835.01 278.87 C 901.84 276.97 968.67 279.64 1035.50 279.81 C 1036.55 309.30 1036.87 338.82 1039.36 368.24 C 1031.17 362.60 1022.22 358.07 1012.71 355.13 C 993.72 349.14 973.65 347.98 953.88 347.48 C 953.61 386.06 954.66 424.77 960.00 463.03 C 964.38 493.69 972.39 524.07 986.15 551.93 C 994.56 570.11 1007.00 586.16 1021.24 600.15 C 991.18 600.58 961.10 600.20 931.03 600.38 C 927.71 600.37 924.34 600.85 921.06 600.26 C 910.90 574.32 906.29 546.67 901.85 519.28 C 893.24 462.00 894.04 403.91 893.98 346.14 C 873.88 346.39 853.77 345.81 833.68 346.61 C 834.14 360.05 833.42 373.52 834.43 386.95 C 835.00 411.64 834.81 436.34 835.15 461.03 C 835.63 480.99 835.57 501.00 837.37 520.91 C 838.83 540.99 840.04 561.22 844.79 580.85 C 846.08 587.81 849.04 594.28 852.27 600.53 C 817.08 600.21 781.88 600.29 746.69 600.49 C 753.08 589.64 755.28 577.10 757.36 564.85 C 760.19 546.72 760.93 528.36 762.48 510.09 C 764.39 469.75 763.85 429.35 764.47 388.99 C 765.56 374.88 764.88 360.73 765.33 346.61 C 745.24 345.80 725.12 346.39 705.02 346.15 C 704.96 410.54 705.95 475.52 693.78 539.04 C 690.40 559.96 685.40 580.68 677.93 600.53 C 644.54 600.03 611.14 600.66 577.76 600.15 C 592.37 585.83 605.02 569.28 613.50 550.58 C 624.38 528.25 631.58 504.27 636.20 479.91 C 644.19 436.27 645.33 391.73 645.13 347.48 C 632.33 347.75 619.50 348.44 606.84 350.39 C 590.08 352.94 573.44 358.31 559.61 368.35 C 562.16 338.91 562.44 309.33 563.50 279.81 C 630.33 279.64 697.16 276.97 763.99 278.87 C 764.37 237.73 764.06 196.57 764.14 155.43 C 710.40 198.99 649.16 233.61 583.45 255.49 C 547.86 267.46 511.32 276.32 474.67 284.34 C 465.06 269.37 456.89 253.52 446.97 238.74 C 483.76 227.99 519.83 214.74 554.71 198.84 C 583.60 185.78 611.57 170.64 637.85 152.87 C 670.35 131.04 700.54 105.89 728.61 78.63 C 753.76 53.91 777.61 27.78 799.33 0.00 Z" />
<path fill="#a8e6cf" opacity="1.00" d=" M 4.65 703.50 C 57.25 704.18 109.87 703.54 162.47 703.81 C 163.21 719.28 165.39 734.62 167.26 749.97 C 149.75 737.65 127.30 737.86 106.82 738.87 C 107.37 783.58 106.85 828.30 107.10 873.02 C 107.25 877.03 106.92 881.15 108.11 885.05 C 109.51 889.95 112.05 894.41 114.58 898.80 C 95.13 897.40 75.61 898.00 56.16 899.03 C 57.93 893.05 63.19 888.39 63.30 881.91 C 63.81 834.10 63.20 786.28 63.58 738.48 C 49.36 738.69 34.94 737.96 20.96 741.14 C 13.53 742.75 6.93 746.70 0.22 750.11 C 1.89 734.59 2.60 718.98 4.65 703.50 Z" />
<path fill="#a8e6cf" opacity="1.00" d=" M 187.22 703.65 C 206.42 703.57 225.63 704.14 244.83 703.60 C 241.89 707.30 239.36 711.40 238.01 715.97 C 235.83 722.79 237.05 730.04 236.58 737.07 C 236.59 752.85 236.77 768.64 236.70 784.43 C 258.63 784.71 280.56 784.16 302.47 784.80 C 303.02 763.53 302.87 742.25 302.65 720.99 C 302.74 714.53 298.74 709.10 295.58 703.81 C 315.10 703.88 334.61 703.51 354.13 703.68 C 350.20 709.42 346.83 715.92 346.58 723.02 C 346.29 774.98 346.18 826.95 346.63 878.92 C 347.15 886.25 350.84 892.81 354.69 898.89 C 334.95 898.06 315.14 897.62 295.42 899.01 C 297.49 894.48 300.09 890.17 301.60 885.41 C 303.21 880.44 302.51 875.14 302.65 870.01 C 302.77 852.17 303.05 834.33 302.46 816.50 C 280.54 816.52 258.62 816.46 236.70 816.56 C 236.79 837.38 236.37 858.20 236.90 879.02 C 237.12 885.91 240.60 892.06 243.80 897.97 C 238.85 898.00 233.90 898.25 228.94 898.45 C 222.30 898.79 215.67 897.69 209.02 898.11 C 201.14 898.58 193.17 898.98 185.36 897.48 C 192.15 891.32 193.54 881.67 193.49 872.98 C 193.49 823.32 193.55 773.65 193.44 723.99 C 193.34 716.76 190.49 709.97 187.22 703.65 Z" />
<path fill="#a8e6cf" opacity="1.00" d=" M 386.46 719.10 C 386.25 713.48 382.77 708.80 381.03 703.62 C 410.36 703.59 439.68 703.82 469.00 703.81 C 480.58 703.54 492.16 703.67 503.74 703.68 C 505.23 717.80 506.16 732.01 509.02 745.95 C 484.11 735.03 456.35 739.67 430.02 738.48 C 429.66 753.82 430.04 769.16 429.85 784.50 C 446.74 784.54 463.73 784.89 480.47 782.26 C 484.57 781.40 488.50 779.89 492.35 778.24 C 492.22 791.99 492.04 805.75 492.78 819.49 C 472.33 813.84 450.93 816.77 430.03 815.99 C 429.69 832.56 429.82 849.13 429.94 865.70 C 449.93 865.29 469.98 865.84 489.91 863.99 C 498.23 863.08 505.78 859.19 513.15 855.49 C 511.00 869.97 508.88 884.45 506.54 898.90 C 464.52 898.01 422.48 898.99 380.47 898.03 C 383.03 893.28 385.87 888.45 386.41 882.98 C 386.54 828.35 386.50 773.72 386.46 719.10 Z" />
<path fill="#a8e6cf" opacity="1.00" d=" M 586.12 703.50 C 635.41 704.09 684.71 703.35 734.01 703.81 C 737.16 704.02 740.63 703.29 743.60 704.20 C 744.19 718.99 745.86 733.73 748.42 748.31 C 741.79 746.47 735.82 742.82 729.12 741.22 C 715.39 737.69 701.08 738.48 687.05 738.73 C 687.09 785.83 686.87 832.93 687.49 880.02 C 687.19 887.11 691.95 892.88 694.85 898.97 C 687.29 897.80 679.62 897.91 672.01 898.43 C 659.74 898.21 647.42 897.37 635.20 898.90 C 637.91 893.16 641.82 887.56 641.80 880.97 C 642.21 833.51 641.80 786.03 642.00 738.56 C 621.49 738.28 599.08 737.82 581.46 750.01 C 583.31 734.54 584.04 718.95 586.12 703.50 Z" />
<path fill="#a8e6cf" opacity="1.00" d=" M 768.00 703.81 C 804.30 703.58 840.61 703.56 876.91 703.81 C 881.77 704.07 886.92 703.27 891.61 704.18 C 893.12 718.16 893.98 732.27 897.14 746.02 C 872.37 735.54 844.96 739.25 818.83 738.57 C 819.01 753.92 818.63 769.27 819.03 784.63 C 839.48 784.25 860.39 785.42 880.26 779.60 C 879.88 792.71 879.86 805.86 881.07 818.93 C 876.20 819.08 871.63 817.26 866.87 816.63 C 850.95 815.50 834.98 816.35 819.05 815.87 C 818.78 832.51 818.69 849.16 819.15 865.80 C 832.09 865.52 845.04 865.58 857.97 865.13 C 866.98 864.70 876.21 865.18 884.92 862.41 C 890.45 860.86 895.70 858.43 900.63 855.50 C 900.68 863.47 898.41 871.17 897.64 879.06 C 896.93 885.82 896.01 892.58 894.07 899.11 C 851.82 898.35 809.57 897.79 767.31 898.22 C 770.15 894.13 772.58 889.69 773.80 884.84 C 775.33 879.34 774.90 873.59 774.95 867.97 C 774.96 819.32 774.92 770.67 774.97 722.03 C 775.07 715.29 771.39 709.35 768.00 703.81 Z" />
<path fill="#a8e6cf" opacity="1.00" d=" M 928.42 703.98 C 945.94 703.38 963.46 703.73 980.99 703.83 C 989.73 725.34 998.17 746.97 1006.71 768.56 C 1013.30 785.40 1020.28 802.09 1026.23 819.17 C 1030.99 810.54 1034.20 801.20 1037.93 792.11 C 1050.44 762.81 1062.72 733.40 1074.16 703.65 C 1092.92 703.64 1111.68 703.69 1130.45 703.63 C 1122.59 714.73 1123.20 728.99 1123.96 741.92 C 1123.94 762.97 1125.23 783.99 1125.05 805.05 C 1125.44 831.75 1125.41 858.48 1127.27 885.14 C 1127.72 890.14 1131.77 893.61 1134.82 897.21 C 1132.01 898.27 1129.02 898.82 1126.03 898.51 C 1118.37 897.73 1110.68 898.15 1103.01 898.05 C 1094.98 897.96 1086.94 898.11 1078.96 898.99 C 1084.41 889.66 1085.71 878.62 1085.51 868.00 C 1085.31 857.69 1085.52 847.36 1084.77 837.06 C 1083.77 818.40 1083.89 799.70 1084.01 781.02 C 1084.03 778.23 1083.73 775.46 1083.26 772.73 C 1081.48 775.00 1080.77 777.85 1079.63 780.46 C 1063.29 820.21 1045.72 859.44 1029.11 899.08 C 1025.42 898.99 1021.75 898.85 1018.07 898.83 C 1010.23 881.40 1003.08 863.68 995.79 846.03 C 985.83 821.57 975.01 797.47 965.47 772.85 C 963.77 782.44 964.88 792.21 964.45 801.88 C 963.18 827.91 962.79 853.98 962.86 880.04 C 962.65 886.81 966.26 892.76 968.68 898.85 C 952.80 898.79 936.91 897.35 921.05 898.85 C 920.80 893.11 926.39 889.51 926.86 884.01 C 928.42 857.02 929.83 830.02 930.63 803.00 C 931.09 791.39 931.09 779.76 931.82 768.16 C 932.57 751.48 933.84 734.77 933.30 718.06 C 933.31 712.93 930.60 708.43 928.42 703.98 Z" />
<path fill="#a8e6cf" opacity="1.00" d=" M 1158.66 703.62 C 1186.45 704.11 1214.27 703.02 1242.06 704.26 C 1261.36 705.67 1282.06 711.59 1294.64 727.27 C 1305.93 742.52 1308.69 762.73 1305.50 781.11 C 1303.69 790.58 1300.83 800.17 1294.92 807.96 C 1285.94 819.94 1272.29 828.00 1257.81 831.38 C 1241.69 835.24 1224.99 834.49 1208.55 834.50 C 1208.67 850.64 1208.25 866.80 1208.92 882.93 C 1209.02 888.57 1212.70 893.09 1216.04 897.28 C 1196.93 899.58 1177.70 897.66 1158.53 898.20 C 1161.29 893.11 1165.42 888.14 1165.02 882.01 C 1165.32 828.35 1165.07 774.69 1165.17 721.03 C 1165.47 714.55 1161.97 708.87 1158.66 703.62 M 1208.56 734.85 C 1208.53 758.52 1208.42 782.19 1208.61 805.85 C 1220.47 805.57 1232.90 806.07 1243.94 800.98 C 1249.78 798.53 1254.53 793.79 1257.16 788.03 C 1260.91 779.90 1261.51 770.65 1260.59 761.85 C 1259.45 752.36 1254.19 742.73 1245.10 738.81 C 1233.64 733.65 1220.76 735.07 1208.56 734.85 Z" />
<path fill="#a8e6cf" opacity="1.00" d=" M 1326.74 704.03 C 1345.96 703.33 1365.20 704.22 1384.43 703.53 C 1383.61 707.25 1380.78 710.04 1379.48 713.57 C 1376.17 721.63 1377.23 730.54 1377.05 739.04 C 1377.14 780.89 1377.18 822.74 1377.03 864.60 C 1393.30 863.97 1409.64 865.91 1425.85 863.80 C 1436.10 862.56 1446.18 859.20 1454.70 853.29 C 1452.45 868.14 1450.02 882.98 1448.52 897.93 C 1422.75 900.16 1396.88 897.70 1371.08 898.06 C 1356.32 898.56 1341.49 897.06 1326.80 899.06 C 1327.32 892.72 1333.64 888.51 1333.33 882.01 C 1333.73 828.00 1333.31 773.98 1333.51 719.97 C 1333.67 713.90 1329.78 708.92 1326.74 704.03 Z" />
<path fill="#a8e6cf" opacity="1.00" d=" M 1466.28 703.66 C 1506.87 703.78 1547.46 703.94 1588.04 703.65 C 1590.36 717.58 1590.06 731.95 1594.23 745.56 C 1568.93 736.43 1541.58 738.57 1515.18 738.88 C 1515.83 753.22 1515.12 767.56 1515.38 781.91 C 1515.44 784.13 1518.15 784.80 1519.98 784.61 C 1539.15 784.12 1559.13 785.68 1577.31 778.38 C 1576.68 792.29 1577.15 806.23 1577.05 820.15 C 1568.86 816.63 1559.83 816.04 1551.03 816.04 C 1539.13 816.06 1527.23 815.83 1515.35 816.16 C 1515.34 832.71 1515.34 849.27 1515.35 865.83 C 1531.92 865.44 1548.50 865.58 1565.05 864.69 C 1569.34 864.42 1573.70 864.47 1577.91 863.45 C 1585.06 861.74 1591.56 858.21 1598.25 855.29 C 1594.31 869.53 1594.74 884.51 1591.28 898.84 C 1548.83 898.71 1506.39 898.63 1463.95 898.72 C 1468.06 892.14 1473.27 885.25 1472.38 877.01 C 1472.35 827.00 1472.65 776.98 1472.30 726.97 C 1472.19 722.98 1472.83 718.90 1471.67 715.01 C 1470.48 710.96 1468.24 707.36 1466.28 703.66 Z" />
</g>
</svg>
